<?xml version="1.0" encoding="UTF-8"?>
<svg version="1.1" xmlns="http://www.w3.org/2000/svg" width="512" height="512">
<path d="M0 0 C1.01790619 0.00215515 2.03581238 0.0043103 3.08456421 0.00653076 C17.69363523 0.05620146 32.02575853 0.30709809 46.375 3.3125 C47.34985352 3.51117676 48.32470703 3.70985352 49.32910156 3.91455078 C97.7109774 14.03517194 141.69928269 35.9516877 177.375 70.3125 C178.3640332 71.26068604 178.3640332 71.26068604 179.37304688 72.22802734 C188.86130305 81.37247479 197.6012044 90.66984009 205.375 101.3125 C206.23306152 102.46355017 207.09113451 103.61459177 207.94921875 104.765625 C213.98736829 112.95680614 219.34595521 121.47054105 224.375 130.3125 C224.73948242 130.94430176 225.10396484 131.57610352 225.47949219 132.22705078 C247.08534998 169.97532572 256.85198095 212.74189997 256.6875 255.9375 C256.68534485 256.95540619 256.6831897 257.97331238 256.68096924 259.02206421 C256.63129854 273.63113523 256.38040191 287.96325853 253.375 302.3125 C253.07698486 303.77478027 253.07698486 303.77478027 252.77294922 305.26660156 C242.65232806 353.6484774 220.7358123 397.63678269 186.375 433.3125 C185.74287598 433.97185547 185.11075195 434.63121094 184.45947266 435.31054688 C175.31502521 444.79880305 166.01765991 453.5387044 155.375 461.3125 C154.22394983 462.17056152 153.07290823 463.02863451 151.921875 463.88671875 C143.73224019 469.92427396 135.22961724 475.30707302 126.375 480.3125 C125.66778809 480.7146875 124.96057617 481.116875 124.23193359 481.53125 C101.09654164 494.5566741 75.92537591 503.30551461 49.9375 508.625 C49.21860596 508.77235596 48.49971191 508.91971191 47.7590332 509.0715332 C33.08339502 511.86090125 18.55831162 512.66142619 3.64770508 512.62817383 C0.70811513 512.6250221 -2.2304558 512.64854926 -5.16992188 512.67382812 C-18.54306192 512.71848737 -31.43916711 511.51301542 -44.625 509.3125 C-46.33055054 509.03031616 -46.33055054 509.03031616 -48.07055664 508.74243164 C-91.33802759 500.97044532 -132.38793216 480.98345309 -165.625 452.3125 C-166.37007813 451.67828125 -167.11515625 451.0440625 -167.8828125 450.390625 C-181.38779833 438.57948485 -194.05918743 425.82889772 -204.625 411.3125 C-205.48149066 410.16255169 -206.33826433 409.01281411 -207.1953125 407.86328125 C-213.23534209 399.67315742 -218.61867614 391.16870382 -223.625 382.3125 C-224.0271875 381.60528809 -224.429375 380.89807617 -224.84375 380.16943359 C-237.8691741 357.03404164 -246.61801461 331.86287591 -251.9375 305.875 C-252.08485596 305.15610596 -252.23221191 304.43721191 -252.3840332 303.6965332 C-255.35789088 288.05024391 -255.99800362 272.57681954 -255.9375 256.6875 C-255.93534485 255.66959381 -255.9331897 254.65168762 -255.93096924 253.60293579 C-255.88129854 238.99386477 -255.63040191 224.66174147 -252.625 210.3125 C-252.42632324 209.33764648 -252.22764648 208.36279297 -252.02294922 207.35839844 C-241.90232806 158.9765226 -219.9858123 114.98821731 -185.625 79.3125 C-184.99287598 78.65314453 -184.36075195 77.99378906 -183.70947266 77.31445312 C-174.56502521 67.82619695 -165.26765991 59.0862956 -154.625 51.3125 C-153.47394983 50.45443848 -152.32290823 49.59636549 -151.171875 48.73828125 C-142.98224019 42.70072604 -134.47961724 37.31792698 -125.625 32.3125 C-124.91778809 31.9103125 -124.21057617 31.508125 -123.48193359 31.09375 C-100.34654164 18.0683259 -75.17537591 9.31948539 -49.1875 4 C-48.46860596 3.85264404 -47.74971191 3.70528809 -47.0090332 3.5534668 C-31.36274391 0.57960912 -15.88931954 -0.06050362 0 0 Z " fill="#E53030" transform="translate(255.625,-0.3125)"/>
<path d="M0 0 C12.04039446 9.48585532 24.12064651 21.54318174 29.76171875 36.17578125 C29.43171875 36.83578125 29.10171875 37.49578125 28.76171875 38.17578125 C27.85292969 36.90734375 27.85292969 36.90734375 26.92578125 35.61328125 C15.3722459 19.81754146 -0.61384241 8.94031937 -20.19433594 5.45263672 C-42.24296052 2.46611734 -65.37072853 7.81609733 -83.23828125 21.17578125 C-100.2407552 35.00615185 -113.28231588 53.0097592 -116.23828125 75.17578125 C-116.51046118 80.01277729 -116.5181488 84.83226023 -116.48828125 89.67578125 C-116.49601562 90.93003906 -116.50375 92.18429687 -116.51171875 93.4765625 C-116.46297207 116.75310303 -107.47838355 136.37360061 -91.61328125 153.23828125 C-76.06428116 168.41090615 -55.54781374 175.30204188 -34.23828125 176.17578125 C-33.00335938 176.2634375 -31.7684375 176.35109375 -30.49609375 176.44140625 C-14.62692176 177.13273651 0.93363961 171.98653612 12.875 161.28125 C14.56154699 159.62263753 16.16928706 157.9239943 17.76171875 156.17578125 C18.75709989 155.17118362 19.75574876 154.16977541 20.76171875 153.17578125 C15.18709374 168.9240969 -0.88394383 180.3669456 -15.1015625 187.640625 C-37.93443808 198.03068872 -64.98123805 197.88739952 -88.55078125 189.92578125 C-100.63924416 185.19734873 -111.17933751 179.39537527 -121.23828125 171.17578125 C-122.40617187 170.25539063 -122.40617187 170.25539063 -123.59765625 169.31640625 C-143.29624787 152.97076639 -155.18828584 127.64436735 -158.06176758 102.45483398 C-158.43644712 97.61716656 -158.42286332 92.77537575 -158.42578125 87.92578125 C-158.43802734 86.87003906 -158.45027344 85.81429687 -158.46289062 84.7265625 C-158.50692194 60.74417224 -149.39625452 38.53766006 -134.23828125 20.17578125 C-133.62597656 19.39976562 -133.01367188 18.62375 -132.3828125 17.82421875 C-116.81798547 -0.95977293 -94.63473104 -11.02683945 -71.23828125 -15.82421875 C-70.42746094 -16.01886719 -69.61664063 -16.21351563 -68.78125 -16.4140625 C-45.10110061 -20.23344143 -19.36891499 -13.91212164 0 0 Z " fill="#FEFCFC" transform="translate(282.23828125,166.82421875)"/>
<path d="M0 0 C4.13281143 3.61863536 6.60931782 8.01584916 9.375 12.6875 C12.79588793 18.39183205 16.24160181 24.02751355 20.07421875 29.46875 C21 31 21 31 21 33 C29.91631377 31.14514641 38.53718385 28.70962509 47.19433594 25.89404297 C48.01836914 25.63510254 48.84240234 25.37616211 49.69140625 25.109375 C50.42560791 24.87186523 51.15980957 24.63435547 51.91625977 24.38964844 C54.26736744 23.9500037 55.74787085 24.25913878 58 25 C56.88205284 26.42284184 55.76396049 27.84556976 54.64526367 29.26782227 C53.66517775 30.51644286 52.68751224 31.76696674 51.7121582 33.01928711 C49.11130284 36.35146385 46.47779669 39.6417185 43.75 42.87109375 C43.23671143 43.49032715 42.72342285 44.10956055 42.19458008 44.74755859 C41.20360053 45.94097216 40.19847793 47.12280647 39.1784668 48.29150391 C37.62987069 50.09466003 37.62987069 50.09466003 36 53 C37.02306924 56.4288886 38.68270149 59.29664275 40.609375 62.29296875 C41.11436523 63.08405029 41.61935547 63.87513184 42.13964844 64.69018555 C42.93677246 65.9263562 42.93677246 65.9263562 43.75 67.1875 C44.83417237 68.88488104 45.91751378 70.58279314 47 72.28125 C47.51820313 73.09335937 48.03640625 73.90546875 48.5703125 74.7421875 C51.12757578 78.78070711 53.5728638 82.88220595 56 87 C48.05699855 84.81932591 40.497077 81.91893952 32.875 78.8125 C31.72773438 78.34908203 30.58046875 77.88566406 29.3984375 77.40820312 C26.59732875 76.27608834 23.79792518 75.13995466 21 74 C17.19053243 77.65846165 13.90601197 81.50538924 10.6875 85.6875 C9.72552889 86.9233861 8.76328705 88.15906152 7.80078125 89.39453125 C7.32979004 90.00119629 6.85879883 90.60786133 6.37353516 91.23291016 C4.38604225 93.78987313 2.38526579 96.33590754 0.375 98.875 C-0.25664062 99.67679687 -0.88828125 100.47859375 -1.5390625 101.3046875 C-2.02117187 101.86414063 -2.50328125 102.42359375 -3 103 C-3.33 103 -3.66 103 -4 103 C-4 90.13 -4 77.26 -4 64 C-14.89 59.71 -25.78 55.42 -37 51 C-34.58405144 48.58405144 -32.93112031 48.24764498 -29.65234375 47.34375 C-28.57146484 47.04339844 -27.49058594 46.74304688 -26.37695312 46.43359375 C-25.24193359 46.12550781 -24.10691406 45.81742187 -22.9375 45.5 C-21.82955078 45.19191406 -20.72160156 44.88382812 -19.58007812 44.56640625 C-13.41714135 42.8680452 -7.254074 41.32361354 -1 40 C-1.00523682 39.3922876 -1.01047363 38.7845752 -1.01586914 38.15844727 C-1.11084275 25.39471615 -0.95691404 12.73037432 0 0 Z " fill="#FEFBFB" transform="translate(329,214)"/>
</svg>
